<svg width="22" height="24" viewBox="0 0 22 24" fill="none" xmlns="http://www.w3.org/2000/svg">
<path fill-rule="evenodd" clip-rule="evenodd" d="M21.5729 23.5679C21.8006 23.3369 21.9286 23.0236 21.9286 22.697V9.75274C21.9287 9.56506 21.8865 9.37983 21.8053 9.2112C21.7241 9.04257 21.6059 8.895 21.4598 8.77977L11.7456 1.11667C11.5324 0.948489 11.27 0.857178 11 0.857178C10.7299 0.857178 10.4676 0.948489 10.2544 1.11667L0.540126 8.77977C0.394072 8.895 0.275915 9.04257 0.194681 9.2112C0.113447 9.37983 0.0712833 9.56506 0.0714114 9.75274V22.697C0.0714114 23.0236 0.199345 23.3369 0.427068 23.5679C0.65479 23.7988 0.963649 23.9286 1.2857 23.9286H7.35702V23.9288H14.6427V23.9286H20.7143C21.0363 23.9286 21.3452 23.7988 21.5729 23.5679ZM14.6427 23.9286V17.8574C14.6427 15.8455 13.0118 14.2145 10.9999 14.2145C8.98798 14.2145 7.35702 15.8455 7.35702 17.8574V23.9286H14.6427Z" fill="#1A1A1A"/>
</svg>
